<svg width="108" height="100" viewBox="0 0 108 100" fill="none" xmlns="http://www.w3.org/2000/svg">
<path d="M84.5097 47.4875C83.5875 47.4875 82.7496 47.6428 82.1259 47.8959C81.523 47.3927 80.5216 46.9821 79.2864 46.7308C78.819 41.9846 76.8895 37.5348 73.7067 33.8629C74.3938 32.851 74.7983 31.884 74.8517 31.1212C75.4804 30.8789 76.1879 30.4225 76.8397 29.7995C78.2026 28.4976 79.1705 27.3109 78.1881 26.3729C77.1685 25.399 75.9637 26.3591 74.6008 27.6609C73.9486 28.2839 73.4712 28.9593 73.2171 29.5598C72.4186 29.6113 71.4063 29.9972 70.3468 30.6535C66.5032 27.6133 61.8443 25.7698 56.8756 25.3237C56.6125 24.1443 56.1827 23.1873 55.6559 22.6115C55.9209 22.0153 56.0835 21.2149 56.0835 20.334C56.0835 18.4926 55.8892 17 54.5 17C53.0583 17 52.9165 18.4926 52.9165 20.334C52.9165 21.2149 53.0791 22.0153 53.3441 22.6115C52.8173 23.1873 52.3875 24.1439 52.1244 25.3237C47.1557 25.7702 42.4972 27.6133 38.6532 30.654C37.5937 29.9976 36.5814 29.6113 35.7829 29.5602C35.5293 28.9597 35.0514 28.2839 34.3992 27.6613C33.0363 26.3595 31.7939 25.4349 30.8119 26.3733C29.7924 27.3472 30.7974 28.4981 32.1603 29.7999C32.8126 30.4229 33.5196 30.8789 34.1483 31.1217C34.2022 31.8844 34.6062 32.8514 35.2933 33.8634C32.1105 37.5348 30.181 41.9846 29.7136 46.7308C28.4789 46.9821 27.477 47.3927 26.8741 47.8959C26.25 47.6428 25.412 47.4875 24.4903 47.4875C22.5626 47.4875 21 47.6731 21 49C21 50.3771 22.5626 50.5125 24.4903 50.5125C25.4125 50.5125 26.2504 50.3572 26.8741 50.1041C27.477 50.6073 28.4784 51.0179 29.7136 51.2692C30.181 56.0154 32.1105 60.4652 35.2933 64.1371C34.6062 65.149 34.2017 66.116 34.1483 66.8788C33.5196 67.1211 32.8121 67.5775 32.1603 68.2005C30.7974 69.5024 29.8295 70.6891 30.8119 71.6271C31.8315 72.601 33.0363 71.6409 34.3992 70.3391C35.0514 69.7161 35.5288 69.0407 35.7829 68.4402C36.5814 68.3887 37.5937 68.0028 38.6532 67.3465C42.4968 70.3867 47.1557 72.2302 52.1244 72.6763C52.3875 73.8557 52.8173 74.8127 53.3441 75.3885C53.0791 75.9847 52.9165 76.7851 52.9165 77.666C52.9165 79.5074 53.1108 81 54.5 81C55.9417 81 56.0835 79.5074 56.0835 77.666C56.0835 76.7851 55.9209 75.9847 55.6559 75.3885C56.1827 74.8127 56.6125 73.8561 56.8756 72.6763C61.8443 72.2298 66.5028 70.3867 70.3468 67.3465C71.4063 68.0028 72.4186 68.3892 73.2171 68.4402C73.4707 69.0407 73.9486 69.7165 74.6008 70.3391C75.9637 71.6409 77.2061 72.5655 78.1881 71.6271C79.2076 70.6532 78.2026 69.5024 76.8397 68.2005C76.1874 67.5775 75.4804 67.1215 74.8517 66.8788C74.7978 66.116 74.3938 65.149 73.7067 64.1371C76.8895 60.4656 78.8195 56.0154 79.2864 51.2692C80.5211 51.0179 81.523 50.6073 82.1259 50.1041C82.75 50.3572 83.588 50.5125 84.5097 50.5125C86.4374 50.5125 88 50.3269 88 49C88 47.6229 86.4374 47.4875 84.5097 47.4875ZM63.671 38.5879L62.9472 39.2792C62.6655 39.5484 62.2411 39.6392 61.8724 39.4951C61.1704 39.2208 60.5281 39.2265 60.164 39.5743C59.9062 39.8205 59.8279 40.1991 59.9058 40.6365C60.0611 41.5134 59.8147 42.4116 59.2069 43.0853L58.1411 44.2673C57.358 43.7165 56.4331 43.3384 55.4285 43.1926L55.5363 41.8141C55.6101 40.8675 56.0889 39.978 56.8915 39.4186C57.2566 39.1642 57.4726 38.8492 57.4726 38.5087C57.4726 38.0298 57.0464 37.6023 56.3788 37.3215C55.9806 37.1541 55.7234 36.7781 55.7234 36.3628V35.4425C56.7547 35.202 57.4731 34.6672 57.4731 34.0459C57.4731 33.5116 56.9427 33.0418 56.1392 32.7675C56.6917 31.7884 57.0686 30.3256 57.1451 28.6603C61.0852 29.125 64.6974 30.6137 67.6809 32.8384C66.5064 34.0654 65.692 35.3512 65.3587 36.4151C64.5873 36.0664 63.8644 36.0404 63.469 36.4181C63.0079 36.8577 63.1198 37.7208 63.671 38.5879ZM52.8617 32.7675C52.0582 33.0418 51.5278 33.512 51.5278 34.0459C51.5278 34.6676 52.2457 35.2024 53.2775 35.4425V36.4199C53.2775 36.8006 53.0447 37.1515 52.6774 37.2986C51.9781 37.5789 51.5278 38.0163 51.5278 38.5087C51.5278 38.8566 51.7525 39.1771 52.1316 39.4346C52.8903 39.9499 53.3812 40.7511 53.4501 41.6381L53.5715 43.1926C52.5664 43.3379 51.642 43.7161 50.8589 44.2673L49.914 43.2189C49.2659 42.4999 48.9457 41.5476 49.0992 40.6096C49.169 40.1831 49.0888 39.8149 48.8365 39.5739C48.4818 39.2351 47.864 39.2208 47.1842 39.4735C46.7788 39.6241 46.3186 39.5319 46.0111 39.2386L45.3299 38.5879C45.8811 37.7213 45.993 36.8581 45.5332 36.4186C45.1378 36.0409 44.4149 36.0668 43.6436 36.4155C43.3102 35.3517 42.4963 34.0658 41.3214 32.8388C44.3049 30.6142 47.917 29.1254 51.8571 28.6607C51.9323 30.3256 52.3092 31.7884 52.8617 32.7675ZM41.3255 38.6285C40.9604 39.3653 40.9332 40.0559 41.3286 40.4336C41.7888 40.8731 42.6924 40.7663 43.5997 40.2393L44.3234 40.9307C44.6052 41.1998 44.7003 41.6052 44.5495 41.9573C44.2623 42.6279 44.2682 43.2414 44.6324 43.5893C44.8901 43.8355 45.2864 43.9103 45.7443 43.8359C46.6624 43.6875 47.6027 43.9229 48.3079 44.5035L49.5453 45.5215C48.9688 46.27 48.5724 47.153 48.4202 48.1126L46.9772 48.0097C45.9862 47.9391 45.0549 47.4818 44.4693 46.7152C44.203 46.3665 43.8732 46.1601 43.5168 46.1601C43.0154 46.1601 42.5679 46.5672 42.2739 47.2049C42.0986 47.5852 41.705 47.831 41.2702 47.831H40.3068C40.055 46.8458 39.4952 46.1597 38.8447 46.1597C38.2854 46.1597 37.7935 46.6663 37.5063 47.4338C36.4813 46.906 34.95 46.546 33.2066 46.4729C33.6931 42.7093 35.2516 39.2589 37.5806 36.4091C38.8656 37.5326 40.2117 38.3101 41.3255 38.6285ZM37.5063 50.5649C37.7935 51.3324 38.2858 51.839 38.8447 51.839C39.4956 51.839 40.0554 51.1533 40.3068 50.1677H41.33C41.7286 50.1677 42.0959 50.3901 42.2499 50.741C42.5434 51.409 43.0013 51.839 43.5168 51.839C43.8809 51.839 44.2166 51.6244 44.4861 51.2623C45.0255 50.5372 45.8643 50.0686 46.7929 50.0029L48.4202 49.8869C48.5724 50.847 48.9683 51.73 49.5453 52.4781L48.4479 53.3806C47.6951 53.9997 46.6982 54.3056 45.7162 54.1589C45.2696 54.0923 44.8842 54.1689 44.6319 54.4098C44.2773 54.7486 44.2623 55.3387 44.5268 55.9881C44.6844 56.3754 44.588 56.8149 44.2809 57.1087L43.5997 57.7594C42.6924 57.2329 41.7888 57.126 41.3286 57.5651C40.9332 57.9428 40.9604 58.6334 41.3255 59.3702C40.2117 59.6886 38.8656 60.4661 37.5811 61.5883C35.2521 58.7389 33.6935 55.2881 33.2071 51.5245C34.95 51.4527 36.4813 51.0927 37.5063 50.5649ZM43.6422 61.5845C44.4136 61.9332 45.1365 61.9591 45.5319 61.5814C45.9921 61.1419 45.8802 60.2787 45.3285 59.4121L46.0523 58.7208C46.334 58.4516 46.7584 58.3608 47.1271 58.5049C47.8292 58.7792 48.4714 58.7735 48.8356 58.4257C49.0933 58.1795 49.1717 57.8009 49.0938 57.3635C48.9384 56.4866 49.1848 55.5884 49.7926 54.9147L50.8584 53.7327C51.6415 54.2835 52.5664 54.6616 53.571 54.8074L53.4632 56.1859C53.3894 57.1325 52.9106 58.022 52.108 58.5814C51.743 58.8358 51.5269 59.1508 51.5269 59.4913C51.5269 59.9702 51.9531 60.3977 52.6208 60.6785C53.0189 60.8459 53.2762 61.2219 53.2762 61.6372V62.5575C52.2448 62.798 51.5265 63.3328 51.5265 63.9541C51.5265 64.4884 52.0569 64.9582 52.8604 65.2325C52.3078 66.2116 51.931 67.6744 51.8544 69.3397C47.9143 68.875 44.3022 67.3863 41.3187 65.1616C42.4949 63.9342 43.3089 62.6483 43.6422 61.5845ZM56.1383 65.2325C56.9418 64.9582 57.4722 64.488 57.4722 63.9541C57.4722 63.3324 56.7543 62.7976 55.7225 62.5575V61.5801C55.7225 61.1994 55.9553 60.8485 56.3226 60.7014C57.0219 60.4211 57.4722 59.9837 57.4722 59.4913C57.4722 59.1434 57.2475 58.8229 56.8684 58.5654C56.1097 58.0501 55.6187 57.2489 55.5499 56.362L55.4285 54.8074C56.4336 54.6621 57.358 54.2839 58.1411 53.7327L59.086 54.7811C59.7341 55.5001 60.0543 56.4524 59.9008 57.3904C59.831 57.817 59.9112 58.1851 60.1635 58.4261C60.5182 58.7649 61.136 58.7792 61.8158 58.5265C62.2212 58.3759 62.6814 58.4681 62.9889 58.7614L63.6701 59.4121C63.1189 60.2787 63.007 61.1419 63.4668 61.5814C63.8622 61.9591 64.5851 61.9332 65.3564 61.5845C65.6898 62.6483 66.5037 63.9342 67.6786 65.1612C64.6956 67.3858 61.083 68.8746 57.1429 69.3393C57.0677 67.6744 56.6908 66.2116 56.1383 65.2325ZM67.6745 59.3715C68.0396 58.6347 68.0668 57.9441 67.6714 57.5664C67.2112 57.1269 66.3076 57.2337 65.4003 57.7607L64.6765 57.0693C64.3948 56.8002 64.2997 56.3948 64.4505 56.0427C64.7377 55.3721 64.7318 54.7586 64.3676 54.4107C64.1099 54.1645 63.7136 54.0897 63.2557 54.1641C62.3376 54.3125 61.3973 54.0771 60.6921 53.4965L59.4547 52.4785C60.0312 51.7304 60.4276 50.847 60.5798 49.8874L62.0228 49.9903C63.0138 50.0609 63.9451 50.5182 64.5307 51.2848C64.797 51.6335 65.1268 51.8399 65.4832 51.8399C65.9846 51.8399 66.4321 51.4328 66.7261 50.7951C66.9014 50.4148 67.295 50.169 67.7298 50.169H68.6932C68.945 51.1542 69.5048 51.8403 70.1553 51.8403C70.7146 51.8403 71.2065 51.3337 71.4937 50.5662C72.5187 51.094 74.05 51.454 75.7934 51.5271C75.3069 55.2907 73.7484 58.7411 71.4194 61.5909C70.1344 60.4674 68.7883 59.6899 67.6745 59.3715ZM71.4937 47.4351C71.2065 46.6676 70.7142 46.161 70.1553 46.161C69.5044 46.161 68.9446 46.8467 68.6932 47.8323H67.67C67.2714 47.8323 66.9041 47.6099 66.7501 47.259C66.4566 46.591 65.9987 46.161 65.4832 46.161C65.1191 46.161 64.7834 46.3756 64.5139 46.7377C63.9745 47.4628 63.1357 47.9314 62.2071 47.9971L60.5798 48.1131C60.4276 47.153 60.0317 46.27 59.4547 45.5219L60.5521 44.6194C61.3049 44.0003 62.3018 43.6944 63.2838 43.8411C63.7304 43.9077 64.1158 43.8311 64.3681 43.5902C64.7227 43.2514 64.7377 42.6613 64.4732 42.0119C64.3156 41.6246 64.412 41.1851 64.7191 40.8913L65.4003 40.2406C66.3076 40.7671 67.2112 40.874 67.6714 40.4349C68.0668 40.0572 68.0396 39.3666 67.6745 38.6298C68.7883 38.3114 70.1344 37.5339 71.4189 36.4117C73.7479 39.2611 75.3065 42.7119 75.7929 46.4755C74.05 46.5473 72.5187 46.9073 71.4937 47.4351Z" fill="#060F9E"/>
<g filter="url(#filter0_d_426_52417)">
<path d="M4.5 13C4.5 7.75329 8.75329 3.5 14 3.5H94C99.2467 3.5 103.5 7.7533 103.5 13V85C103.5 90.2467 99.2467 94.5 94 94.5H14C8.7533 94.5 4.5 90.2467 4.5 85V13Z" stroke="#D9D9D9" shape-rendering="crispEdges"/>
</g>
<defs>
<filter id="filter0_d_426_52417" x="0" y="0" width="108" height="100" filterUnits="userSpaceOnUse" color-interpolation-filters="sRGB">
<feFlood flood-opacity="0" result="BackgroundImageFix"/>
<feColorMatrix in="SourceAlpha" type="matrix" values="0 0 0 0 0 0 0 0 0 0 0 0 0 0 0 0 0 0 127 0" result="hardAlpha"/>
<feOffset dy="1"/>
<feGaussianBlur stdDeviation="2"/>
<feComposite in2="hardAlpha" operator="out"/>
<feColorMatrix type="matrix" values="0 0 0 0 0 0 0 0 0 0 0 0 0 0 0 0 0 0 0.25 0"/>
<feBlend mode="normal" in2="BackgroundImageFix" result="effect1_dropShadow_426_52417"/>
<feBlend mode="normal" in="SourceGraphic" in2="effect1_dropShadow_426_52417" result="shape"/>
</filter>
</defs>
</svg>
